<mxfile host="app.diagrams.net" modified="2020-07-15T15:04:05.168Z" agent="5.0 (Windows NT 10.0; Win64; x64) AppleWebKit/537.36 (KHTML, like Gecko) Chrome/83.0.4103.116 Safari/537.36" etag="LeoWLB5Lc34fvyOAsb-d" version="13.4.4" type="github">
  <diagram id="C5RBs43oDa-KdzZeNtuy" name="Page-1">
    <mxGraphModel dx="1422" dy="713" grid="1" gridSize="10" guides="1" tooltips="1" connect="1" arrows="1" fold="1" page="1" pageScale="1" pageWidth="827" pageHeight="1169" math="0" shadow="0">
      <root>
        <mxCell id="WIyWlLk6GJQsqaUBKTNV-0" />
        <mxCell id="WIyWlLk6GJQsqaUBKTNV-1" parent="WIyWlLk6GJQsqaUBKTNV-0" />
        <mxCell id="OvOaILnfo7wgloUsC1i8-16" value="" style="edgeStyle=orthogonalEdgeStyle;rounded=0;orthogonalLoop=1;jettySize=auto;html=1;" parent="WIyWlLk6GJQsqaUBKTNV-1" source="OvOaILnfo7wgloUsC1i8-1" edge="1">
          <mxGeometry relative="1" as="geometry">
            <mxPoint x="220" y="200" as="targetPoint" />
          </mxGeometry>
        </mxCell>
        <mxCell id="WIyWlLk6GJQsqaUBKTNV-3" value="Add Individual Membership" style="rounded=1;whiteSpace=wrap;html=1;fontSize=12;glass=0;strokeWidth=1;shadow=0;" parent="WIyWlLk6GJQsqaUBKTNV-1" vertex="1">
          <mxGeometry x="160" y="80" width="120" height="40" as="geometry" />
        </mxCell>
        <mxCell id="OvOaILnfo7wgloUsC1i8-36" value="" style="edgeStyle=orthogonalEdgeStyle;rounded=0;orthogonalLoop=1;jettySize=auto;html=1;entryX=1;entryY=0.5;entryDx=0;entryDy=0;" parent="WIyWlLk6GJQsqaUBKTNV-1" source="WIyWlLk6GJQsqaUBKTNV-7" target="OvOaILnfo7wgloUsC1i8-24" edge="1">
          <mxGeometry relative="1" as="geometry">
            <mxPoint x="370" y="865.5" as="targetPoint" />
            <Array as="points">
              <mxPoint x="370" y="844" />
            </Array>
          </mxGeometry>
        </mxCell>
        <mxCell id="WIyWlLk6GJQsqaUBKTNV-7" value="Create Organization Level Membership" style="rounded=1;whiteSpace=wrap;html=1;fontSize=12;glass=0;strokeWidth=1;shadow=0;" parent="WIyWlLk6GJQsqaUBKTNV-1" vertex="1">
          <mxGeometry x="310" y="745.5" width="120" height="42" as="geometry" />
        </mxCell>
        <mxCell id="OvOaILnfo7wgloUsC1i8-5" value="" style="edgeStyle=orthogonalEdgeStyle;rounded=0;orthogonalLoop=1;jettySize=auto;html=1;" parent="WIyWlLk6GJQsqaUBKTNV-1" source="OvOaILnfo7wgloUsC1i8-1" target="2" edge="1">
          <mxGeometry relative="1" as="geometry" />
        </mxCell>
        <mxCell id="OvOaILnfo7wgloUsC1i8-7" value="No" style="edgeStyle=orthogonalEdgeStyle;rounded=0;orthogonalLoop=1;jettySize=auto;html=1;" parent="WIyWlLk6GJQsqaUBKTNV-1" source="2" target="OvOaILnfo7wgloUsC1i8-6" edge="1">
          <mxGeometry relative="1" as="geometry" />
        </mxCell>
        <mxCell id="0ht5I2Jy_2EhBemdo1K_-7" value="yes" style="edgeStyle=orthogonalEdgeStyle;rounded=0;orthogonalLoop=1;jettySize=auto;html=1;" edge="1" parent="WIyWlLk6GJQsqaUBKTNV-1" source="2" target="0ht5I2Jy_2EhBemdo1K_-6">
          <mxGeometry relative="1" as="geometry" />
        </mxCell>
        <mxCell id="2" value="Are all required fields filled in?" style="rhombus;whiteSpace=wrap;html=1;rounded=0;" parent="WIyWlLk6GJQsqaUBKTNV-1" vertex="1">
          <mxGeometry x="180" y="230" width="80" height="80" as="geometry" />
        </mxCell>
        <mxCell id="OvOaILnfo7wgloUsC1i8-6" value="Throw validation" style="whiteSpace=wrap;html=1;rounded=0;" parent="WIyWlLk6GJQsqaUBKTNV-1" vertex="1">
          <mxGeometry x="310" y="240" width="120" height="60" as="geometry" />
        </mxCell>
        <mxCell id="OvOaILnfo7wgloUsC1i8-18" value="" style="edgeStyle=orthogonalEdgeStyle;rounded=0;orthogonalLoop=1;jettySize=auto;html=1;exitX=0.5;exitY=1;exitDx=0;exitDy=0;" parent="WIyWlLk6GJQsqaUBKTNV-1" source="OvOaILnfo7wgloUsC1i8-8" target="OvOaILnfo7wgloUsC1i8-12" edge="1">
          <mxGeometry relative="1" as="geometry">
            <mxPoint x="220" y="700" as="sourcePoint" />
          </mxGeometry>
        </mxCell>
        <mxCell id="OvOaILnfo7wgloUsC1i8-8" value="Update Related" style="whiteSpace=wrap;html=1;rounded=0;" parent="WIyWlLk6GJQsqaUBKTNV-1" vertex="1">
          <mxGeometry x="160" y="550" width="120" height="60" as="geometry" />
        </mxCell>
        <mxCell id="OvOaILnfo7wgloUsC1i8-19" value="No" style="edgeStyle=orthogonalEdgeStyle;rounded=0;orthogonalLoop=1;jettySize=auto;html=1;" parent="WIyWlLk6GJQsqaUBKTNV-1" source="OvOaILnfo7wgloUsC1i8-12" target="WIyWlLk6GJQsqaUBKTNV-7" edge="1">
          <mxGeometry relative="1" as="geometry" />
        </mxCell>
        <mxCell id="OvOaILnfo7wgloUsC1i8-25" value="Yes" style="edgeStyle=orthogonalEdgeStyle;rounded=0;orthogonalLoop=1;jettySize=auto;html=1;" parent="WIyWlLk6GJQsqaUBKTNV-1" source="OvOaILnfo7wgloUsC1i8-12" target="OvOaILnfo7wgloUsC1i8-24" edge="1">
          <mxGeometry relative="1" as="geometry" />
        </mxCell>
        <mxCell id="OvOaILnfo7wgloUsC1i8-12" value="Is there an organization level membership?" style="rhombus;whiteSpace=wrap;html=1;shadow=0;fontFamily=Helvetica;fontSize=12;align=center;strokeWidth=1;spacing=6;spacingTop=-4;" parent="WIyWlLk6GJQsqaUBKTNV-1" vertex="1">
          <mxGeometry x="168.5" y="640" width="103" height="98" as="geometry" />
        </mxCell>
        <mxCell id="OvOaILnfo7wgloUsC1i8-1" value="Create account membership" style="rounded=0;whiteSpace=wrap;html=1;" parent="WIyWlLk6GJQsqaUBKTNV-1" vertex="1">
          <mxGeometry x="160" y="150" width="120" height="60" as="geometry" />
        </mxCell>
        <mxCell id="OvOaILnfo7wgloUsC1i8-17" value="" style="edgeStyle=orthogonalEdgeStyle;rounded=0;orthogonalLoop=1;jettySize=auto;html=1;" parent="WIyWlLk6GJQsqaUBKTNV-1" source="WIyWlLk6GJQsqaUBKTNV-3" target="OvOaILnfo7wgloUsC1i8-1" edge="1">
          <mxGeometry relative="1" as="geometry">
            <mxPoint x="220" y="120" as="sourcePoint" />
            <mxPoint x="220" y="200" as="targetPoint" />
          </mxGeometry>
        </mxCell>
        <mxCell id="OvOaILnfo7wgloUsC1i8-27" value="" style="edgeStyle=orthogonalEdgeStyle;rounded=0;orthogonalLoop=1;jettySize=auto;html=1;" parent="WIyWlLk6GJQsqaUBKTNV-1" source="OvOaILnfo7wgloUsC1i8-24" target="OvOaILnfo7wgloUsC1i8-26" edge="1">
          <mxGeometry relative="1" as="geometry" />
        </mxCell>
        <mxCell id="OvOaILnfo7wgloUsC1i8-24" value="Create Membership Members" style="whiteSpace=wrap;html=1;shadow=0;strokeWidth=1;spacing=6;spacingTop=-4;" parent="WIyWlLk6GJQsqaUBKTNV-1" vertex="1">
          <mxGeometry x="160" y="810" width="120" height="67" as="geometry" />
        </mxCell>
        <mxCell id="OvOaILnfo7wgloUsC1i8-29" value="" style="edgeStyle=orthogonalEdgeStyle;rounded=0;orthogonalLoop=1;jettySize=auto;html=1;" parent="WIyWlLk6GJQsqaUBKTNV-1" source="OvOaILnfo7wgloUsC1i8-26" target="OvOaILnfo7wgloUsC1i8-28" edge="1">
          <mxGeometry relative="1" as="geometry" />
        </mxCell>
        <mxCell id="OvOaILnfo7wgloUsC1i8-26" value="Create Subscription Items for membership&lt;br&gt;" style="whiteSpace=wrap;html=1;shadow=0;strokeWidth=1;spacing=6;spacingTop=-4;" parent="WIyWlLk6GJQsqaUBKTNV-1" vertex="1">
          <mxGeometry x="160" y="920" width="120" height="67" as="geometry" />
        </mxCell>
        <mxCell id="OvOaILnfo7wgloUsC1i8-31" value="" style="edgeStyle=orthogonalEdgeStyle;rounded=0;orthogonalLoop=1;jettySize=auto;html=1;" parent="WIyWlLk6GJQsqaUBKTNV-1" source="OvOaILnfo7wgloUsC1i8-32" target="OvOaILnfo7wgloUsC1i8-30" edge="1">
          <mxGeometry relative="1" as="geometry" />
        </mxCell>
        <mxCell id="OvOaILnfo7wgloUsC1i8-33" value="" style="edgeStyle=orthogonalEdgeStyle;rounded=0;orthogonalLoop=1;jettySize=auto;html=1;" parent="WIyWlLk6GJQsqaUBKTNV-1" source="OvOaILnfo7wgloUsC1i8-28" target="OvOaILnfo7wgloUsC1i8-32" edge="1">
          <mxGeometry relative="1" as="geometry" />
        </mxCell>
        <mxCell id="OvOaILnfo7wgloUsC1i8-28" value="Create order (er100) installments based on the period" style="whiteSpace=wrap;html=1;shadow=0;strokeWidth=1;spacing=6;spacingTop=-4;" parent="WIyWlLk6GJQsqaUBKTNV-1" vertex="1">
          <mxGeometry x="160" y="1030" width="120" height="67" as="geometry" />
        </mxCell>
        <mxCell id="0ht5I2Jy_2EhBemdo1K_-20" value="" style="edgeStyle=orthogonalEdgeStyle;rounded=0;orthogonalLoop=1;jettySize=auto;html=1;" edge="1" parent="WIyWlLk6GJQsqaUBKTNV-1" source="OvOaILnfo7wgloUsC1i8-30" target="0ht5I2Jy_2EhBemdo1K_-19">
          <mxGeometry relative="1" as="geometry" />
        </mxCell>
        <mxCell id="OvOaILnfo7wgloUsC1i8-30" value="Create order install ment (er101s) items based on subscription items. Items are tied to the member via an id or account code" style="whiteSpace=wrap;html=1;shadow=0;strokeWidth=1;spacing=6;spacingTop=-4;" parent="WIyWlLk6GJQsqaUBKTNV-1" vertex="1">
          <mxGeometry x="160" y="1210" width="120" height="105" as="geometry" />
        </mxCell>
        <mxCell id="OvOaILnfo7wgloUsC1i8-32" value="Create order members based account members" style="whiteSpace=wrap;html=1;shadow=0;strokeWidth=1;spacing=6;spacingTop=-4;" parent="WIyWlLk6GJQsqaUBKTNV-1" vertex="1">
          <mxGeometry x="160" y="1120" width="120" height="67" as="geometry" />
        </mxCell>
        <mxCell id="OvOaILnfo7wgloUsC1i8-34" value="" style="edgeStyle=orthogonalEdgeStyle;rounded=0;orthogonalLoop=1;jettySize=auto;html=1;" parent="WIyWlLk6GJQsqaUBKTNV-1" source="OvOaILnfo7wgloUsC1i8-28" target="OvOaILnfo7wgloUsC1i8-32" edge="1">
          <mxGeometry relative="1" as="geometry">
            <mxPoint x="220" y="1090" as="sourcePoint" />
            <mxPoint x="220" y="1210" as="targetPoint" />
          </mxGeometry>
        </mxCell>
        <mxCell id="0ht5I2Jy_2EhBemdo1K_-9" value="" style="edgeStyle=orthogonalEdgeStyle;rounded=0;orthogonalLoop=1;jettySize=auto;html=1;" edge="1" parent="WIyWlLk6GJQsqaUBKTNV-1" source="0ht5I2Jy_2EhBemdo1K_-6" target="0ht5I2Jy_2EhBemdo1K_-8">
          <mxGeometry relative="1" as="geometry" />
        </mxCell>
        <mxCell id="0ht5I2Jy_2EhBemdo1K_-10" value="Yes" style="edgeStyle=orthogonalEdgeStyle;rounded=0;orthogonalLoop=1;jettySize=auto;html=1;" edge="1" parent="WIyWlLk6GJQsqaUBKTNV-1" target="0ht5I2Jy_2EhBemdo1K_-11">
          <mxGeometry relative="1" as="geometry">
            <mxPoint x="220" y="410" as="sourcePoint" />
            <mxPoint x="220" y="640" as="targetPoint" />
          </mxGeometry>
        </mxCell>
        <mxCell id="0ht5I2Jy_2EhBemdo1K_-6" value="Is membership start date within the period" style="rhombus;whiteSpace=wrap;html=1;rounded=0;" vertex="1" parent="WIyWlLk6GJQsqaUBKTNV-1">
          <mxGeometry x="180" y="330" width="80" height="80" as="geometry" />
        </mxCell>
        <mxCell id="0ht5I2Jy_2EhBemdo1K_-8" value="&lt;span&gt;Throw validation&lt;/span&gt;" style="whiteSpace=wrap;html=1;rounded=0;" vertex="1" parent="WIyWlLk6GJQsqaUBKTNV-1">
          <mxGeometry x="320" y="340" width="120" height="60" as="geometry" />
        </mxCell>
        <mxCell id="0ht5I2Jy_2EhBemdo1K_-18" value="" style="edgeStyle=orthogonalEdgeStyle;rounded=0;orthogonalLoop=1;jettySize=auto;html=1;entryX=0.5;entryY=0;entryDx=0;entryDy=0;" edge="1" parent="WIyWlLk6GJQsqaUBKTNV-1" source="0ht5I2Jy_2EhBemdo1K_-11" target="OvOaILnfo7wgloUsC1i8-8">
          <mxGeometry relative="1" as="geometry">
            <mxPoint x="220" y="580" as="targetPoint" />
          </mxGeometry>
        </mxCell>
        <mxCell id="0ht5I2Jy_2EhBemdo1K_-11" value="Process" style="whiteSpace=wrap;html=1;rounded=0;" vertex="1" parent="WIyWlLk6GJQsqaUBKTNV-1">
          <mxGeometry x="160" y="440" width="120" height="60" as="geometry" />
        </mxCell>
        <mxCell id="0ht5I2Jy_2EhBemdo1K_-19" value="Create Administrator records&lt;br&gt;" style="whiteSpace=wrap;html=1;shadow=0;strokeWidth=1;spacing=6;spacingTop=-4;" vertex="1" parent="WIyWlLk6GJQsqaUBKTNV-1">
          <mxGeometry x="160" y="1330" width="120" height="105" as="geometry" />
        </mxCell>
      </root>
    </mxGraphModel>
  </diagram>
</mxfile>
